<svg id="Capa_1" data-name="Capa 1" xmlns="http://www.w3.org/2000/svg" viewBox="0 0 512 511.98"><defs><style>.cls-1{fill:#394854;}</style></defs><title>add-circel-blue</title><path class="cls-1" d="M256,512C114.83,512,0,397.15,0,256S114.83,0,256,0,512,114.85,512,256,397.14,512,256,512Zm0-494.62C124.42,17.37,17.36,124.43,17.36,256S124.42,494.65,256,494.65,494.64,387.59,494.64,256,387.58,17.37,256,17.37Z" transform="translate(0 -0.01)"/><path class="cls-1" d="M363.81,264.68H148.2a8.68,8.68,0,1,1,0-17.36H363.8a8.68,8.68,0,0,1,0,17.36Z" transform="translate(0 -0.01)"/><path class="cls-1" d="M256,372.48a8.68,8.68,0,0,1-8.68-8.68V148.21a8.68,8.68,0,0,1,17.36,0V363.79A8.69,8.69,0,0,1,256,372.48Z" transform="translate(0 -0.01)"/></svg>