<svg id="Ebene_1" data-name="Ebene 1" xmlns="http://www.w3.org/2000/svg" xmlns:xlink="http://www.w3.org/1999/xlink" viewBox="0 0 20.8 16"><defs><style>.cls-1{fill:none;}.cls-2{clip-path:url(#clip-path);}.cls-3{fill:#fff;}</style><clipPath id="clip-path" transform="translate(0 0)"><rect class="cls-1" width="21" height="16"/></clipPath></defs><title>checked</title><g class="cls-2"><path class="cls-3" d="M.24,8.8a.77.77,0,0,1,0-1.12L1.36,6.56a.77.77,0,0,1,1.12,0l.08.08L7,11.36a.39.39,0,0,0,.56,0L18.24.24h.08a.77.77,0,0,1,1.12,0l1.12,1.12a.77.77,0,0,1,0,1.12L7.76,15.76a.77.77,0,0,1-1.12,0L.4,9Zm0,0" transform="translate(0 0)"/></g></svg>