<svg id="Ebene_1" data-name="Ebene 1" xmlns="http://www.w3.org/2000/svg" xmlns:xlink="http://www.w3.org/1999/xlink" viewBox="0 0 21.8 17"><defs><style>.cls-1,.cls-3{fill:none;}.cls-2{clip-path:url(#clip-path);}.cls-3{stroke:#fff;stroke-miterlimit:10;}</style><clipPath id="clip-path" transform="translate(0.5 0.5)"><rect class="cls-1" width="21" height="16"/></clipPath></defs><title>checked-path</title><g class="cls-2"><path class="cls-3" d="M.24,8.8a.77.77,0,0,1,0-1.09l0,0L1.36,6.56a.77.77,0,0,1,1.09,0l0,0,.08.08L7,11.36a.39.39,0,0,0,.55,0h0L17.1,1.43,18.24.24h.08a.77.77,0,0,1,1.09,0l0,0,1.12,1.12a.77.77,0,0,1,0,1.09l0,0L7.76,15.76a.77.77,0,0,1-1.09,0l0,0L.4,9Z" transform="translate(0.5 0.5)"/></g></svg>