<svg id="Ebene_1" data-name="Ebene 1" xmlns="http://www.w3.org/2000/svg" viewBox="0 0 296.7 190.85"><title>mail</title><path d="M284.48,0H12.22A12.22,12.22,0,0,0,0,12.22v166.4a12.22,12.22,0,0,0,12.22,12.23H284.48a12.22,12.22,0,0,0,12.22-12.23V12.22A12.22,12.22,0,0,0,284.48,0ZM12.22,9.6H284.48a2.62,2.62,0,0,1,2.5,1.85L148.35,98.05,9.73,11.45A2.6,2.6,0,0,1,12.22,9.6ZM9.6,22.4l99.71,62.27L9.6,163.77ZM287.11,178.56a2.62,2.62,0,0,1-2.63,2.62H12.22a2.62,2.62,0,0,1-2.62-2.62V176L118,90.37l27.84,17.4a4.78,4.78,0,0,0,5.12,0l27.84-17.4L287.11,176Zm0-14.79-100-78.84,100-62Zm0,0"/></svg>