<svg id="Ebene_1" data-name="Ebene 1" xmlns="http://www.w3.org/2000/svg" viewBox="0 0 370.41 370.41"><title>phone</title><path d="M370.15,304.87a28.41,28.41,0,0,0-14.09-21.06L264.68,231.2a28.68,28.68,0,0,0-34.53,4.57l-18,18a13.2,13.2,0,0,1-17.62,1A520.75,520.75,0,0,1,153,217.4a518.75,518.75,0,0,1-37.34-41.52,13.2,13.2,0,0,1,1-17.63l18-18a28.68,28.68,0,0,0,4.57-34.52L86.59,14.35a28.62,28.62,0,0,0-45.05-6L14.42,35.51C-4.51,54.44-4.81,89.07,13.57,133c17.66,42.25,50.64,88.77,92.85,131s88.72,75.18,131,92.85c21.64,9.05,41,13.57,57.36,13.57,16.87,0,30.53-4.81,40.14-14.43L362,328.86a28.42,28.42,0,0,0,8.13-24ZM258.69,241.6l91.38,52.61a16.63,16.63,0,0,1,5.08,24.29L233.7,249.18l4.94-4.93a16.63,16.63,0,0,1,20.05-2.65ZM64,12.15a16.5,16.5,0,0,1,12.23,8.19l52.62,91.38a16.66,16.66,0,0,1-2.65,20.05l-4.54,4.53-69.69-121a16.41,16.41,0,0,1,12-3.11ZM326.41,347.5c-15,15-45.8,14.41-84.39-1.73-40.84-17.08-86-49.14-127.12-90.27S41.72,169.23,24.64,128.38C8.5,89.79,7.87,59,22.91,44L43,23.86l69.8,121.23-4.68,4.68a25.16,25.16,0,0,0-1.85,33.63,532,532,0,0,0,38.21,42.49A535.57,535.57,0,0,0,187,264.1a25.19,25.19,0,0,0,33.64-1.85l4.27-4.27,121.61,69.41Zm0,0"/></svg>