<svg xmlns="http://www.w3.org/2000/svg" viewBox="0 0 179.72 388.79"><defs><style>.cls-1{fill:#fff;}.cls-2{fill:none;stroke:#0d1f21;stroke-miterlimit:10;}</style></defs><title>FvD-Flasche_Pfad</title><g id="FvD_Pfad_Flasche" data-name="FvD Pfad Flasche"><path class="cls-1" d="M179.72,388.9H0V.12H179.72ZM93,193.5c1.57.47.22,4.87,3.79,2.82-2.17-3.95,1.2-6.55,2.24-9.78-4.5-1.17-8.51-.82-11.22,3.52-1.3,2.09-2.5,4.78,0,6.38s4-.82,5.31-2.72c.05-.08,0-.23,0-.35Zm20.08,1.86a4,4,0,0,0-.29.59.33.33,0,0,0,.13.26c1.88.16,3.84.72,5.61.35,1.6-.34,3-1.68,4.48-2.57l-.48-.41-5.79,1.4-1-1.67,9-7.66c-8.17-.28-8.17-.28-9.06,2l4.3-.28.76,1.34-7.79,6.78-3.31-1.42c.8-2.3-2.07-7-3.47-6.5-1.24-.64-3.87.21-3.07.07-1,3.1-1.94,6-2.88,9l.85.49c2.64-3.13,7.73-7.29,7.61-6.4-.25,1.82-.34,3.65-.49,5.47Zm.67,142.56c-2.64-.44-5.27-.93-7.92-1.3-1.39-.19-2.82-.13-4.22-.2a7.23,7.23,0,0,1-2.35-.23,31.6,31.6,0,0,1-12.23-9c-1.28-1.56-2.58-3-4.75-1.49s-1.6,3.57-.82,5.35a5.48,5.48,0,0,0,2.85,2.55c2.43.94,3.23,2.51,2.79,6.12-2.13-1.34-4.62-2-5.18-3.46-.92-2.34-2.56-2.34-4.3-3a28,28,0,0,1-5.72-3c-1.3-.86-2.26-2.21-3.48-3.21-2.35-1.93-5.18-3.43-7.08-5.72-2.52-3.06-5.24-5.35-9.11-6.39-2.82-.75-5.2-2.09-5-5.75a18,18,0,0,0-.75-4.28l-.52.05-.81,4-2.57-5-.86,5.63,2.15,1.8-2.27,2.54c-2.56-1.08-4.71-2-6.83-2.91a5.34,5.34,0,0,1-2.26-1.46A46.64,46.64,0,0,1,30,304.77c1.89-1,1.8-2.74.3-4.27l-3.27.31a14.6,14.6,0,0,0,.06-2.64,6.86,6.86,0,0,0-.9-3.12c-1.58-2-3.44-3.75-5.18-5.61l-.89.31c1.49,3.55,2.92,7.11,4.47,10.63.81,1.85,1.82,3.6,2.74,5.4l-.77.44L31.09,309l-.31.67-4.19-.59-.12.62,2.61,1-2.73,3.59-2.67-4.5c-3.19,2.52-3.27,5.79-3.08,9.17a65.8,65.8,0,0,1,.11,7.16c-.13,2.66,1,4.14,3.46,5.12a95.17,95.17,0,0,0,35.93,6.58l-4.51-1.18-1.31-7.94,3.55,2.28c.76-1.08,1.64-2.31,2.56-3.6,4.33,2.34,9.1,4,8.61,10.42l-4,.72a73.41,73.41,0,0,0,8.19,1c11,.11,21.93.15,32.89,0,2.53,0,5-1.05,7.58-1.6,8.76.9,27.2-1.16,34.28-4.67-5.44.91-10.58,1.83-15.75,2.56-1.19.17-3.1.11-3.6-.61-2.09-3-4.07-2.52-6.45.09L118,328.87l2.79-1.49c-.37-1.51-.51-2.18-.71-2.84-.59-2-.7-4.48-2-5.71-.71-.67-3.46.84-5.3,1.35a2.57,2.57,0,0,1-.68,0c-.69-1.78-.64-1.76.29-4.27.14-.37-.42-1.34-.87-1.53-2.74-1.19-7.52.65-9.2,3.61l5.18,3.69c1.54,1.08,2.6,2.12,1.82,4.42-.41,1.21,0,3.6.94,4.21A7.51,7.51,0,0,1,113.73,337.92Zm42.08-7.13c1.79-.75,3.51-1.13,4.78-2.11,1.07-.81,2.25-2.31,2.27-3.52.15-15,.1-30,.1-45l-1-.08-3.51,8.23c-3.1-3.81-3.08-7-1-10.23,4.1-6.36,5.21-13.27,5-20.79-.48-20.62-.44-41.25-.79-61.88-.05-2.7-1.06-5.41-1.77-8.08-.43-1.64-1.13-3.21-1.7-4.8l.68-.29c.79,1,1.59,2.08,2.66,3.5a16.43,16.43,0,0,0,.35-1.85c.48-12.75.89-25.49,1.48-38.23.13-2.73-1.18-2.88-3.24-2.8-7.5.26-15,.41-22.52.66-1.5,0-3,.3-5.1.53l1.91,5.33c-.38,3.15-4.12,6.24-.46,9.88-.63,1.25-1.53,2.24-1.58,3.27a27.56,27.56,0,0,0,5.21,18.3c1.92,2.66,1.4,7.19,1.71,10.89.19,2.31-1.16,5.56,0,6.81,3.31,3.71,1.77,7.81,1.89,11.65.15,4.9-.85,9.83-.86,14.74,0,14.66.22,29.32.34,44,0,1.6-.15,3.21-.25,5.19-3.18-2.08-5-1.1-5.87,1.26l-4.82.63,1.85-2.14c-2.25.35-4,.73-5.76.85-2.06.13-4.14,0-6.21,0l-.09.75,4.93,1.08-2.61,6.32c2.42.8,5.3.87,6.25,2.25,1.95,2.87,4.83,5.35,4.51,9.67-.31,4.06,3.25,6.32,7.52,5.71a2.49,2.49,0,0,1,1.93.45c2.22,2.58,4.22,5.36,6.52,7.85a3.51,3.51,0,0,0,3.06.73c2.31-.81,4.44-2.11,6.7-3.09.79-.34,2-.72,2.56-.36a2.66,2.66,0,0,1,.82,2.42c-1.14,3.58-2.47,7.12-3.88,10.61-.19.46-1.55,1-1.81.78a22.15,22.15,0,0,1-2.56-2.63c-.11,4.24-.11,4.24,5.4,4.23-1.09,1.36-2.34,2.3-2.69,3.5C155.7,326.66,155.91,328.51,155.81,330.79Zm-17.74-60.66V224.75H47.15v46.12A533.77,533.77,0,0,0,138.07,270.13ZM20.26,180.76l-1.31.09c0,.46-.13.91-.13,1.36.18,14.19.33,28.38.61,42.57,0,1.6.86,3.17,1.24,4.78,1.15,4.84,2.26,9.69,3.39,14.54l-1,.39-3.48-3.7c.31,5.48-.14,10.23,1,14.57,2,7.42,4.82,14.61,7.49,21.83.8,2.17,2.64,4,3.28,6.16,1.77,6,6.08,8.95,12,11.1a15.22,15.22,0,0,0-7.14-11.23l-7.79-16c1.79.1,2.93.13,4.07.24s2.25.29,3.34.44c1.3-5.7,1.81-6.21,9.08-9.17V222.29H74.81l-.62-1.94h3c-5.62-4.41-5.78-5.49-1.37-7.79a5.34,5.34,0,0,0-1-1.43c-6.24-4.53-6.8-6.81-3.54-13.75,1.11-2.37,2-4.84,3-7.29,1.49-3.93,2-4.08,5.93-1.33l-2.16,8,1.08.5a25.57,25.57,0,0,1,1.93-4,53.13,53.13,0,0,1,4.34-5.14,7.53,7.53,0,0,1,2-1.07,7.35,7.35,0,0,0-2.56-.82c-.71.05-1.39.81-2.08,1.26l.14-.85-7.17-1.5c1.77-4.09,3.25-8.26,5.36-12.07a12.34,12.34,0,0,1,5.2-5c1.5-.69,3.82.43,6,.78.2-2.61-1.29-4.06-3.79-3.22s-5,2.15-6.47,4.06c-2.71,3.55-4.62,7.72-6.94,11.59-1.22,2-2.58,4-4,6.21l1.81.92-4.71,11.82L67,199.94a8.77,8.77,0,0,0-1.59-2.65,8.93,8.93,0,0,0-3-1c.13,1.07-.15,2.52.44,3.16,2.3,2.45.89,4.17-.65,6.24L52,195l3.38-1.22c-1.21-.47-2.42.34-2.83,0-2.45-1.78-4.72-3.81-7.35-6a49.3,49.3,0,0,1-3.94,5.37,5.4,5.4,0,0,1-3.56,1.55c-.52,0-1.34-1.82-1.55-2.91-1-4.88-1.79-9.8-2.68-14.85l-6.34.86c0,7.12,0,14,0,20.92,0,1.58.54,3.62-2.16,3.53-2.25-.08-4-.77-3.89-3.54.07-2,.07-4.06,0-6.08C20.82,188.67,20.52,184.71,20.26,180.76Zm87.09,41.8V222c5.23,0,10.49-.28,15.7.09,4,.28,6.2-1.34,7.43-4.93.69-2,1.63-4,2.33-6,.8-2.33-.55-4.14-3-3.83a27.38,27.38,0,0,0-4.43,1.32c-3.51,1.1-7,2.75-10.54,3.14-3.16.35-5.44,1.24-7,3.91s-4.13,3.51-7.33,3.08a53.4,53.4,0,0,0-10.26-.43c-1.32.08-2.55,1.55-3.82,2.38,1.27.61,2.51,1.69,3.8,1.73C95.91,222.67,101.63,222.56,107.35,222.56ZM102.11,33.94c-.65,2.28-2.46,4.81,1.24,6,.48.15.6,1.24,1.06,1.74a90.2,90.2,0,0,0,6.79,7c.46.4,3.1-.56,3.12-.94.18-5.37,3-10.75.29-16.16l-3,3.78c.27-7.06-5.48-4.1-8.59-7h8.44c-5.24-1.6-12.49-.26-13.86,2l9.2,2.32L103,37.09ZM69.63,285.73l.69-1a3.85,3.85,0,0,1,1.37-.12c6.81,1.9,11.81-2.51,17.29-5,1.08-.5,2.63-2.45.23-3.16-4.09-1.2-8.34-2-12.23,1-1.56,1.22-2.87,3.05-5.51,2.2-.56-.18-2.08,1.79-2.72,3a36.54,36.54,0,0,0-1.86,5.33l5.32.66.62-1.24Zm38.56,16.82c-1.28,0-2.58.41-3.29-.07-2.88-1.92-4.64-.05-6.55,1.57a24.21,24.21,0,0,0-3,2.74,10.5,10.5,0,0,0-1.22,2.67c1,.3,2.32,1.15,3,.79,3.69-2,7.24-4.29,10.8-6.55C108.15,303.52,108.12,302.83,108.19,302.55Zm15.07,62.64c5.75-1.52,12.23,1.79,18.51-2.87C134.35,359.39,129.05,363.93,123.26,365.19Zm-67.51.08c-15-4.87-15-4.87-17.44-2.23C43.86,366.84,50.13,363.63,55.75,365.27Zm60.46.37c10.68,4.2,14.48,4.53,17.24.84Zm-53-.12-17.37,1.14.1,1.07C50.54,370,52.68,369.72,63.22,365.52ZM114.43,55.79c-1.3-1.27-2.15-2.79-3.13-2.88S109,54,107.86,54.67l3.74,4.66ZM25.81,172.07l.45-8.65-1.65-.06C21.21,166.14,24.66,169.11,25.81,172.07Zm7,121.69-.68.23L34,303.27l1,0,1.75-3.17Zm31.6-104c-2,.12-3.39,1.15-2.74,3.31.25.82,2,1.2,3.75,2.18ZM103.56,64.13l1,.53,2.5-4.87a12.06,12.06,0,0,0-1.49-.46C104.82,60.9,104.2,62.52,103.56,64.13ZM77.89,314.78l.17,1.66c2-.17,4.42,2.27,6.6-2.12ZM66.26,49.61l1.33,0V43.1l-1,0Q66.42,46.34,66.26,49.61Z" transform="translate(0 -0.12)"/><path d="M20.26,180.76c.26,4,.56,7.91.77,11.87.11,2,.11,4.05,0,6.08-.1,2.77,1.64,3.46,3.89,3.54,2.7.09,2.16-1.95,2.16-3.53,0-6.9,0-13.8,0-20.92l6.34-.86c.89,5.05,1.7,10,2.68,14.85.21,1.09,1,2.92,1.55,2.91a5.4,5.4,0,0,0,3.56-1.55,49.3,49.3,0,0,0,3.94-5.37c2.63,2.2,4.9,4.23,7.35,6,.41.29,1.62-.52,2.83,0L52,195l10.21,10.76c1.54-2.07,2.42-9,3.19-8.43A8.77,8.77,0,0,1,67,199.94l1.19.27c1.56-3.92-13.11,22.08-23.3,22.08v36.43c-7.27,3-7.78,3.47-9.08,9.17-1.09-.15-2.21-.33-3.34-.44s-2.28-.14-4.07-.24l7.79,16a15.22,15.22,0,0,1,7.14,11.23c-5.89-2.15-10.2-5.1-12-11.1-.64-2.18-2.48-4-3.28-6.16-2.67-7.22-5.54-14.41-7.49-21.83-1.14-4.34-.69-9.09-1-14.57l3.48,3.7,1-.39c-1.13-4.85-2.24-9.7-3.39-14.54-.38-1.61-1.21-3.18-1.24-4.78-.28-14.19-.43-28.38-.61-42.57,0-.45.09-.9.13-1.36Zm27.39,19.17L46.55,201c1.52,3.13,3.27,6.18,4.49,9.42.85,2.27.9,4.83,1.5,7.21.19.76,1,1.37,1.55,2A12.19,12.19,0,0,0,55.52,218c.87-1.38,1.62-2.84,2.45-4.25,1.13-1.95,2.3-3.88,3.45-5.82L61,207c-2.26,3.32-3.5,1.64-5.2-.07C53.28,204.39,50.38,202.24,47.65,199.93Z" transform="translate(0 -0.12)"/><path d="M113.63,337.83c-2.52.56-5,1.57-7.57,1.61-11,.18-21.93.14-32.89,0a73.41,73.41,0,0,1-8.19-1l4-.72c.49-6.44-4.28-8.08-8.61-10.42-.92,1.29-1.8,2.52-2.56,3.6l-3.55-2.28,1.31,7.94,4.51,1.18a95.17,95.17,0,0,1-35.93-6.58c-2.43-1-3.59-2.46-3.46-5.12a65.8,65.8,0,0,0-.11-7.16c-.19-3.38-.11-6.65,3.08-9.17l2.67,4.5,2.73-3.59-2.61-1,.12-.62,4.19.59.31-.67-4.55-2.76.77-.44c-.92-1.8-1.93-3.55-2.74-5.4-1.55-3.52-3-7.08-4.47-10.63l.89-.31c1.74,1.86,3.6,3.62,5.18,5.61a6.86,6.86,0,0,1,.9,3.12,14.6,14.6,0,0,1-.06,2.64l3.27-.31c1.5,1.53,1.59,3.23-.3,4.27a46.64,46.64,0,0,0,2.54,4.79A5.34,5.34,0,0,0,34.78,311c2.12,1,4.27,1.83,6.83,2.91l2.27-2.54-2.15-1.8.86-5.63,2.57,5,.81-4,.52-.05a18,18,0,0,1,.75,4.28c-.23,3.66,2.15,5,5,5.75,3.87,1,6.59,3.33,9.11,6.39,1.9,2.29,4.73,3.79,7.08,5.72,1.22,1,2.18,2.35,3.48,3.21a28,28,0,0,0,5.72,3c1.74.65,3.38.65,4.3,3,.56,1.44,3,2.12,5.18,3.46.44-3.61-.36-5.18-2.79-6.12a5.48,5.48,0,0,1-2.85-2.55c-.78-1.78-1.29-3.9.82-5.35s3.47-.07,4.75,1.49a31.6,31.6,0,0,0,12.23,9,7.23,7.23,0,0,0,2.35.23c1.4.07,2.83,0,4.22.2,2.65.37,5.28.86,7.92,1.3Z" transform="translate(0 -0.12)"/><path d="M113.73,337.92a7.51,7.51,0,0,0-3.47-7.6c-.9-.61-1.35-3-.94-4.21.78-2.3-.28-3.34-1.82-4.42L102.32,318c1.68-3,6.46-4.8,9.2-3.61.45.19,1,1.16.87,1.53-.93,2.51-1,2.49-.29,4.27a2.57,2.57,0,0,0,.68,0c1.84-.51,4.59-2,5.3-1.35,1.3,1.23,1.41,3.73,2,5.71.2.66.34,1.33.71,2.84L118,328.87l4.12,6.34c2.38-2.61,4.36-3.07,6.45-.09.5.72,2.41.78,3.6.61,5.17-.73,10.31-1.65,15.75-2.56-7.08,3.51-25.52,5.57-34.29,4.66Z" transform="translate(0 -0.12)"/><path d="M102.11,33.94l.92,3.15,3.81-4.42-9.2-2.32c1.37-2.28,8.62-3.62,13.86-2h-8.44c3.11,2.93,8.86,0,8.59,7l3-3.78c2.67,5.41-.11,10.79-.29,16.16,0,.38-2.66,1.34-3.12.94a90.2,90.2,0,0,1-6.79-7c-.46-.5-.58-1.59-1.06-1.74C99.65,38.75,101.46,36.22,102.11,33.94Z" transform="translate(0 -0.12)"/><path d="M69.63,285.73l3.2,1.58-.62,1.24-5.32-.66a36.54,36.54,0,0,1,1.86-5.33c.64-1.2,2.16-3.17,2.72-3,2.64.85,4-1,5.51-2.2,3.89-3,8.14-2.19,12.23-1,2.4.71.85,2.66-.23,3.16-5.48,2.54-10.48,6.95-17.29,5a3.85,3.85,0,0,0-1.37.12Z" transform="translate(0 -0.12)"/><path d="M108.19,302.55c-.07.28,0,1-.33,1.15-3.56,2.26-7.11,4.54-10.8,6.55-.66.36-2-.49-3-.79a10.5,10.5,0,0,1,1.22-2.67,24.21,24.21,0,0,1,3-2.74c1.91-1.62,3.67-3.49,6.55-1.57C105.61,303,106.91,302.55,108.19,302.55Z" transform="translate(0 -0.12)"/><path d="M123.26,365.19c5.79-1.26,11.09-5.8,18.51-2.87C135.49,367,129,363.67,123.26,365.19Z" transform="translate(0 -0.12)"/><path d="M58.75,363.27c-5.62-1.64-11.89,1.57-17.44-2.23C43.7,358.4,43.7,358.4,58.75,363.27Z" transform="translate(0 -0.12)"/><path d="M116.22,365.65l17.23.83C130.69,370.17,126.89,369.84,116.22,365.65Z" transform="translate(0 -0.12)"/><path d="M64.22,364.52C53.68,368.72,51.54,369,47,366.73l-.1-1.07Z" transform="translate(0 -0.12)"/><path d="M114.43,55.79l-2.83,3.54-3.74-4.66c1.15-.64,2.35-1.85,3.44-1.76S113.13,54.52,114.43,55.79Z" transform="translate(0 -0.12)"/><path d="M25.81,172.07c-1.15-3-4.6-5.93-1.2-8.71l1.65.06Z" transform="translate(0 -0.12)"/><path d="M32.78,293.76l3.91,6.3-1.75,3.17-1,0L32.1,294Z" transform="translate(0 -0.12)"/><path d="M65.39,195.27" transform="translate(0 -0.12)"/><path d="M103.56,64.13c.64-1.61,1.26-3.23,2-4.8a12.06,12.06,0,0,1,1.49.46l-2.5,4.87Z" transform="translate(0 -0.12)"/><path d="M77.89,314.78l6.77-.46c-2.18,4.39-4.58,1.95-6.6,2.12Z" transform="translate(0 -0.12)"/><path d="M66.26,49.61q.17-3.27.31-6.54l1,0v6.55Z" transform="translate(0 -0.12)"/><path class="cls-1" d="M118.24,252.94c-.37-4.94,2.88-10.25-2.28-15.17l7.05-.47a70.18,70.18,0,0,0-1.3,7.82c-.2,4.26,0,8.54,0,12.91-3.49,1.13-5.93.79-7.9-2.62a81.24,81.24,0,0,0-8.25-11.25c.61,4.66-2.53,9.81,2.7,14.67l-8.44.55-.58-.75c4.42-2.48,3.1-6.48,2.9-9.94s2.1-7.53-2.94-9.51c4.1-2.45,8.41-1.72,10.65,1.53Q114,246.82,118.24,252.94Z" transform="translate(0 -0.12)"/><path class="cls-1" d="M81.16,238.92a46.48,46.48,0,0,1,0,4.65c-.06.67-.7,1.28-1.08,1.93a11.21,11.21,0,0,1-1.91-1.2c-1-1-1.69-2.39-2.83-3.09-4.35-2.64-9.42-.13-10.2,4.91-1,6.61,1.71,10.9,7.11,10.53A7.7,7.7,0,0,0,77.13,254c.53-.65-.91-2.88-1.55-4.65,1.43-1.12,6.35-1.13,9.22.66-5,1.66-2,6-3.08,8.62-3.52.32-6.76.75-10,.89-7.59.32-12.08-4.5-11.68-12.37.34-6.8,5.16-10.42,12.67-9.49C75.3,238,77.9,238.44,81.16,238.92Z" transform="translate(0 -0.12)"/><path class="cls-1" d="M86.58,238.58h11c-4.26,3.94-4.19,16.41.19,20.36H85.79c4.91-2.56,3.69-6.47,3.38-9.79s2.33-7.59-2.89-9.61Z" transform="translate(0 -0.12)"/><path class="cls-1" d="M47.65,199.93c2.73,2.31,5.63,4.46,8.14,7,1.7,1.71,2.94,3.39,5.2.07l.43,1c-1.15,1.94-2.32,3.87-3.45,5.82-.83,1.41-1.58,2.87-2.45,4.25a12.19,12.19,0,0,1-1.43,1.63c-.54-.68-1.36-1.29-1.55-2-.6-2.38-.65-4.94-1.5-7.21-1.22-3.24-3-6.29-4.49-9.42Z" transform="translate(0 -0.12)"/></g><g id="Pfad"><path class="cls-2" d="M91.9,1.74S57.53.85,58.12,8.85,59.6,28.7,59.6,28.7l1.19,2.08L61.09,53l.59,41.78s0,5.92-6.22,10.07S27,120,21.38,130.33c0,0-3.55,5.34-3.55,24.89s3.55,181.33,3.55,181.33,3.85,19,30.82,33.49c0,0,11.85,6.81,39.7,7.4" transform="translate(0 -0.12)"/><path class="cls-2" d="M91.9,1.74s34.37-.89,33.78,7.11S124.2,28.7,124.2,28.7L123,30.78,122.71,53l-.59,41.78s0,5.92,6.22,10.07,28.45,15.11,34.08,25.48c0,0,3.55,5.34,3.55,24.89s-3.55,181.33-3.55,181.33-3.85,19-30.82,33.49c0,0-11.85,6.81-39.7,7.4" transform="translate(0 -0.12)"/></g></svg>