<svg id="Ebene_1" data-name="Ebene 1" xmlns="http://www.w3.org/2000/svg" viewBox="0 0 500 500"><defs><style>.cls-1{fill:#0d1f21;}.cls-2{fill:#fff;}</style></defs><title>gintastisch-logo-blau</title><rect class="cls-1" x="0.5" y="0.5" width="499" height="499"/><path d="M499,1V499H1V1H499m1-1H0V500H500V0Z"/><path class="cls-2" d="M115.32,93.16a36.94,36.94,0,0,1,14.27,23.48H105.45a18.67,18.67,0,0,0-7.34-8.07,22.45,22.45,0,0,0-11.88-3q-10.8,0-17.34,7.28t-6.54,19.67q0,13.49,6.87,20.68t19.55,7.21A23.6,23.6,0,0,0,103,155.93a23.91,23.91,0,0,0,8.68-12.74H82.9V126.78h47.89v22.54a45.8,45.8,0,0,1-8.54,15.34,43.91,43.91,0,0,1-15,11.48,47.65,47.65,0,0,1-20.88,4.4q-14.28,0-25-6.07a41.61,41.61,0,0,1-16.48-17,52.4,52.4,0,0,1-5.8-25,52.36,52.36,0,0,1,5.8-24.94,41.63,41.63,0,0,1,16.41-17Q72,84.49,86.1,84.49,103.85,84.49,115.32,93.16Z"/><path class="cls-2" d="M170.69,85.42v94.32H147.88V85.42Z"/><path class="cls-2" d="M270.21,179.74H247.4l-38.16-57.9v57.9H186.43V85.42h22.81l38.16,58.43V85.42h22.81Z"/><path class="cls-2" d="M114,203.58v18.15H88.38V297.9H65.43V221.73H40.08V203.58Z"/><path class="cls-2" d="M177.75,280.69H142.4l-5.87,17.21h-24l34.56-93.65h26.28L207.9,297.9H183.62Zm-5.87-17.34-11.74-34.69-11.87,34.69Z"/><path class="cls-2" d="M285,285.1a26.79,26.79,0,0,1-11.2,10q-7.41,3.73-17.95,3.74-15.87,0-26.14-7.74t-11.21-21.61h24.28a12.8,12.8,0,0,0,3.8,8.4,11.68,11.68,0,0,0,8.34,3.07,9.68,9.68,0,0,0,6.94-2.4,8.41,8.41,0,0,0,2.53-6.4,8.29,8.29,0,0,0-2.33-6,18.31,18.31,0,0,0-5.8-3.93q-3.48-1.55-9.61-3.67A118.89,118.89,0,0,1,232,252.61a26.87,26.87,0,0,1-9.74-8.54q-4.06-5.67-4.07-14.74a24.79,24.79,0,0,1,4.27-14.54,27.17,27.17,0,0,1,11.81-9.41,43.19,43.19,0,0,1,17.28-3.26q15.73,0,25,7.47T287,230.13H262.34a12.63,12.63,0,0,0-3.4-7.4,10,10,0,0,0-7.4-2.74,9.49,9.49,0,0,0-6.47,2.14,7.82,7.82,0,0,0-2.47,6.27,8,8,0,0,0,2.2,5.67,16.93,16.93,0,0,0,5.53,3.8q3.34,1.47,9.61,3.73a106.46,106.46,0,0,1,14.81,6.07,28.52,28.52,0,0,1,9.87,8.74q4.14,5.74,4.14,14.94A26,26,0,0,1,285,285.1Z"/><path class="cls-2" d="M369.2,203.58v18.15H343.59V297.9H320.64V221.73H295.29V203.58Z"/><path class="cls-2" d="M71.19,321.74v94.33H48.37V321.74Z"/><path class="cls-2" d="M150.9,403.26a26.75,26.75,0,0,1-11.21,10q-7.4,3.74-17.94,3.74-15.89,0-26.15-7.74T84.39,387.65h24.28a12.81,12.81,0,0,0,3.81,8.4,11.64,11.64,0,0,0,8.33,3.07,9.68,9.68,0,0,0,6.94-2.4,8.4,8.4,0,0,0,2.54-6.4,8.29,8.29,0,0,0-2.34-6,18.31,18.31,0,0,0-5.8-3.93q-3.48-1.53-9.61-3.67a117.33,117.33,0,0,1-14.61-5.94,26.75,26.75,0,0,1-9.73-8.54q-4.08-5.66-4.07-14.74A24.79,24.79,0,0,1,88.4,333a27.12,27.12,0,0,1,11.8-9.4,43.09,43.09,0,0,1,17.28-3.27q15.74,0,25,7.47T153,348.29H128.28a12.63,12.63,0,0,0-3.4-7.4,10,10,0,0,0-7.4-2.74,9.54,9.54,0,0,0-6.47,2.14,7.82,7.82,0,0,0-2.47,6.27,8,8,0,0,0,2.2,5.67,16.72,16.72,0,0,0,5.54,3.8q3.33,1.47,9.6,3.74a104.75,104.75,0,0,1,14.81,6.07,28.24,28.24,0,0,1,9.87,8.74q4.14,5.73,4.14,14.94A26,26,0,0,1,150.9,403.26Z"/><path class="cls-2" d="M240.28,330.28q11.81,9.48,15.28,25.62H231.41a22.2,22.2,0,0,0-8.2-10.27,23,23,0,0,0-13.15-3.74,20,20,0,0,0-16.14,7.34q-6.13,7.33-6.13,19.61t6.13,19.54a20.08,20.08,0,0,0,16.14,7.27,23,23,0,0,0,13.15-3.73,22.32,22.32,0,0,0,8.2-10.14h24.15q-3.48,16-15.28,25.55t-29.81,9.54q-13.75,0-24.15-6.07a41.23,41.23,0,0,1-16.08-17,57.73,57.73,0,0,1,0-49.9,41.23,41.23,0,0,1,16.08-17q10.41-6.06,24.15-6.07Q228.47,320.81,240.28,330.28Z"/><path class="cls-2" d="M354.16,321.74v94.33h-23V376.71H295.46v39.36H272.64V321.74h22.82V358.3h35.75V321.74Z"/></svg>