<svg xmlns="http://www.w3.org/2000/svg" width="51" height="51" viewBox="0 0 51 51">
  <path id="Pfad_40" data-name="Pfad 40" d="M25.5,4.533c6.8,0,7.65,0,10.2.283a13.141,13.141,0,0,1,4.817.85,9.951,9.951,0,0,1,4.817,4.817,13.141,13.141,0,0,1,.85,4.817c0,2.55.283,3.4.283,10.2s0,7.65-.283,10.2a13.141,13.141,0,0,1-.85,4.817,9.951,9.951,0,0,1-4.817,4.817,13.141,13.141,0,0,1-4.817.85c-2.55,0-3.4.283-10.2.283s-7.65,0-10.2-.283a13.141,13.141,0,0,1-4.817-.85,9.95,9.95,0,0,1-4.817-4.817,13.141,13.141,0,0,1-.85-4.817c0-2.55-.283-3.4-.283-10.2s0-7.65.283-10.2a13.141,13.141,0,0,1,.85-4.817A10.176,10.176,0,0,1,7.65,7.65a4.79,4.79,0,0,1,2.833-1.983,13.141,13.141,0,0,1,4.817-.85c2.55-.283,3.4-.283,10.2-.283M25.5,0c-6.8,0-7.933,0-10.483.283A17.492,17.492,0,0,0,8.783,1.417,11.092,11.092,0,0,0,4.25,4.25,11.092,11.092,0,0,0,1.417,8.783,12.91,12.91,0,0,0,.283,15.017C0,17.567,0,18.7,0,25.5s0,7.933.283,10.483a17.492,17.492,0,0,0,1.133,6.233A11.092,11.092,0,0,0,4.25,46.75a11.092,11.092,0,0,0,4.533,2.833,17.492,17.492,0,0,0,6.233,1.133C17.567,51,18.7,51,25.5,51s7.933,0,10.483-.283a17.492,17.492,0,0,0,6.233-1.133,11.887,11.887,0,0,0,7.367-7.367,17.492,17.492,0,0,0,1.133-6.233C50.717,33.15,51,32.3,51,25.5s0-7.933-.283-10.483a17.492,17.492,0,0,0-1.133-6.233A11.092,11.092,0,0,0,46.75,4.25a11.092,11.092,0,0,0-4.533-2.833A17.492,17.492,0,0,0,35.983.283C33.433,0,32.3,0,25.5,0m0,12.467A12.823,12.823,0,0,0,12.467,25.5,13.033,13.033,0,1,0,25.5,12.467M25.5,34A8.348,8.348,0,0,1,17,25.5,8.348,8.348,0,0,1,25.5,17,8.348,8.348,0,0,1,34,25.5,8.348,8.348,0,0,1,25.5,34M39.1,8.783A3.117,3.117,0,1,0,42.217,11.9,3.144,3.144,0,0,0,39.1,8.783" transform="translate(0)" fill="#fff" fill-rule="evenodd"/>
</svg>
