<svg id="Ebene_1" data-name="Ebene 1" xmlns="http://www.w3.org/2000/svg" xmlns:xlink="http://www.w3.org/1999/xlink" viewBox="0 0 1366 768"><defs><style>.cls-1{fill:none;}.cls-2{clip-path:url(#clip-path);}.cls-3{fill:#394854;}.cls-4{fill:#c4b69a;}.cls-5{fill:#fff;}</style><clipPath id="clip-path"><rect class="cls-1" x="103.31" y="-272.69" width="1125.54" height="1399.83" transform="translate(1093.31 -238.85) rotate(90)"/></clipPath></defs><title>organicFormBackground_6</title><g class="cls-2"><rect class="cls-3" x="103.31" y="-272.69" width="1125.54" height="1399.83" transform="translate(1093.31 -238.85) rotate(90)"/><path class="cls-4" d="M1566.61,585.34s-220.44-83.12-351.75-53S1028.14,575.7,1033,617.86s50.59,41,48.18,80.71-13.25,57.83,13.26,77.1,157.8,10.84,174.67,27.71,145.76,53,197.56,33.73S1563,816.63,1563,816.63Z"/><path class="cls-4" d="M226.88-110.29C208.47-110.53-184-220-416.08,15.81s-127,260.73-241.21,360.2-51.58,250.51,51.58,287.35,176.83,162.1,235.78,11S-384.67,512.32-259.41,505s132.62,88.42,232.09-44.21S79.52,217.59,175.31,158.65,249,166,359.51,96,506.87-106.61,226.88-110.29Z"/><path class="cls-5" d="M-189,946.2s-22.57,157,110.73,234.1S517,1162.38,683,1022s-20.69-158.35,22-217S527,677,369.26,666.69C218,656.81-80.53,734.09-132.12,824.14S-189,946.2-189,946.2Z"/></g></svg>