<svg id="Ebene_1" data-name="Ebene 1" xmlns="http://www.w3.org/2000/svg" xmlns:xlink="http://www.w3.org/1999/xlink" viewBox="0 0 500 500"><defs><style>.cls-1{fill:none;}.cls-2{clip-path:url(#clip-path);}.cls-3{fill:#394854;}.cls-4{fill:#c4b69a;}.cls-5{fill:#ebb11a;}.cls-6{fill:#fff;}</style><clipPath id="clip-path"><rect id="SVGID" class="cls-1" x="-76.69" y="-144.69" width="731.55" height="909.83" transform="translate(599.31 21.14) rotate(90)"/></clipPath></defs><title>organicBoxBackground</title><g class="cls-2"><rect class="cls-3" x="-76.69" y="-144.69" width="731.55" height="909.83" transform="translate(599.31 21.14) rotate(90)"/><path class="cls-4" d="M711.35,416s-143.28-54-228.63-34.45S361.36,409.72,364.5,437.13s32.88,26.62,31.31,52.45-8.61,37.59,8.62,50.11,102.57,7,113.53,18,94.74,34.45,128.4,21.93A216.56,216.56,0,0,1,709,566.31Z"/><path class="cls-5" d="M3.62-39.14c-12-.16-267-71.29-417.9,82S-496.82,212.28-571,276.93s-33.53,162.82,33.52,186.77,114.93,105.36,153.25,7.18-9.58-105.35,71.83-110.14S-226.25,418.2-161.6,332-92.16,174-29.9,135.65,18,140.44,89.82,95,185.6-36.75,3.62-39.14Z"/><path class="cls-6" d="M-266.72,647.53s-14.67,102.06,72,152.16S192.2,788,300.08,696.8s-13.45-102.92,14.3-141-115.69-83.2-218.22-89.9c-98.3-6.42-292.35,43.81-325.88,102.34S-266.72,647.53-266.72,647.53Z"/></g></svg>